<?xml version="1.0" standalone="no"?>
<!DOCTYPE svg PUBLIC "-//W3C//DTD SVG 20010904//EN"
 "http://www.w3.org/TR/2001/REC-SVG-20010904/DTD/svg10.dtd">
<svg version="1.0" xmlns="http://www.w3.org/2000/svg"
 width="615.000000pt" height="615.000000pt" viewBox="0 0 615.000000 615.000000"
 preserveAspectRatio="xMidYMid meet">
<metadata>
Created by potrace 1.14, written by Peter Selinger 2001-2017
</metadata>
<g transform="translate(0.000000,615.000000) scale(0.100000,-0.100000)"
fill="#000000" stroke="none">
<path d="M3209 5826 c-79 -24 -104 -64 -166 -261 -15 -49 -31 -92 -34 -95 -3
-3 -9 -16 -12 -30 -14 -56 -47 -79 -132 -96 -44 -8 -121 -17 -171 -21 l-90 -6
-47 47 c-26 25 -47 50 -47 56 0 5 -9 20 -21 32 -11 13 -44 54 -72 93 -89 119
-177 154 -313 124 -32 -7 -62 -12 -66 -11 -3 1 -12 -5 -18 -13 -7 -8 -18 -15
-24 -15 -15 0 -210 -93 -214 -103 -2 -4 -17 -14 -33 -22 -16 -9 -29 -22 -29
-29 0 -8 -5 -16 -10 -18 -15 -5 -39 -76 -40 -116 0 -31 34 -218 46 -252 3 -8
5 -16 5 -17 1 -2 7 -26 15 -55 16 -63 12 -82 -30 -118 -17 -16 -54 -50 -82
-77 -27 -27 -83 -71 -123 -97 l-73 -49 -126 57 c-204 90 -260 103 -329 74 -15
-6 -31 -11 -34 -10 -6 1 -69 -64 -114 -120 -11 -13 -29 -41 -40 -62 -11 -21
-26 -40 -32 -43 -7 -3 -13 -11 -13 -19 0 -8 -4 -14 -9 -14 -5 0 -12 -13 -16
-29 -3 -16 -12 -34 -19 -40 -18 -15 -63 -118 -69 -157 -8 -55 25 -104 182
-267 83 -86 151 -163 151 -170 0 -20 -64 -202 -72 -205 -5 -2 -8 -10 -8 -18 0
-7 -12 -38 -27 -69 -32 -65 -35 -66 -223 -96 -170 -26 -228 -51 -264 -111 -15
-26 -27 -66 -31 -98 -6 -68 -16 -212 -16 -225 14 -252 33 -304 123 -349 28
-14 62 -26 74 -26 13 0 26 -5 29 -10 4 -6 10 -8 15 -5 10 6 190 -21 235 -35
29 -9 70 -60 70 -86 0 -6 5 -18 11 -25 15 -20 66 -193 71 -243 l5 -43 -88 -79
c-118 -105 -160 -148 -190 -194 -26 -39 -46 -104 -36 -114 3 -3 6 -19 7 -35 3
-39 71 -177 133 -271 98 -149 180 -220 256 -220 38 0 118 28 231 81 39 17 75
33 80 34 6 0 24 7 40 15 17 7 37 14 45 16 19 4 111 -64 207 -152 39 -36 73
-65 76 -63 3 2 13 -7 24 -20 19 -23 19 -24 -9 -129 -15 -58 -25 -108 -23 -111
3 -2 0 -11 -7 -18 -13 -16 -13 -16 -23 -123 -6 -66 -5 -81 16 -127 12 -29 24
-51 26 -49 3 2 15 -7 29 -21 34 -33 296 -160 360 -173 65 -14 78 -14 129 -5
79 13 125 51 220 180 117 158 135 175 183 176 20 1 41 1 46 0 5 -1 32 -4 60
-7 101 -11 196 -33 215 -51 23 -22 40 -62 97 -227 25 -70 51 -141 60 -157 20
-39 65 -60 154 -71 92 -12 74 -12 205 2 213 21 324 62 352 128 10 23 20 106
28 235 l13 200 28 23 c16 13 32 23 36 24 3 0 34 16 68 35 34 19 67 35 73 35 6
0 18 6 26 14 9 7 39 21 67 30 55 18 90 12 127 -21 9 -9 26 -21 36 -27 10 -6
52 -36 92 -67 156 -120 223 -134 340 -73 38 20 69 40 69 45 0 5 6 9 14 9 13 0
31 13 94 68 15 13 39 31 54 40 16 9 28 20 28 24 0 5 16 23 35 40 20 17 45 51
57 76 42 93 12 194 -116 393 -65 101 -74 123 -57 133 5 3 21 29 36 58 35 67
120 195 154 231 25 27 30 28 101 26 41 -1 85 -6 97 -10 13 -5 25 -4 28 2 4 5
11 7 16 3 6 -3 36 -5 67 -5 51 1 73 1 107 -1 48 -2 112 29 135 68 55 89 133
336 144 459 11 118 -21 153 -237 263 -68 34 -138 75 -155 90 -30 26 -32 30
-32 102 0 41 1 82 1 90 0 8 0 33 0 55 -3 143 -2 149 35 173 18 12 38 22 43 22
6 0 14 6 18 13 4 7 37 26 72 41 153 68 236 129 251 187 12 43 2 141 -24 238
-8 30 -13 58 -10 62 2 4 1 9 -3 11 -5 1 -16 27 -26 56 -10 30 -28 75 -39 100
-12 26 -22 49 -23 52 -5 22 -37 55 -70 73 -36 18 -55 20 -185 18 -80 -1 -158
-4 -175 -7 -61 -10 -104 -4 -130 17 -28 25 -145 199 -145 217 0 7 -4 12 -8 12
-4 0 -18 20 -30 45 -25 52 -25 51 40 147 21 32 41 66 45 75 4 10 12 23 18 28
23 20 67 139 72 195 5 47 1 67 -16 102 -22 46 -143 172 -155 161 -3 -3 -6 -1
-6 5 0 15 -128 105 -202 143 -105 53 -183 33 -336 -85 -40 -31 -97 -72 -127
-93 -54 -35 -57 -36 -98 -24 -51 16 -263 124 -296 151 -23 20 -24 29 -34 198
-5 107 -16 199 -26 232 -15 52 -19 57 -77 86 -52 27 -193 61 -254 63 -8 0 -54
3 -101 7 -53 4 -93 2 -105 -4 -11 -6 -26 -7 -34 -3 -8 4 -31 3 -51 -3z m-166
-1115 c71 22 339 -21 549 -87 120 -38 275 -107 346 -155 24 -16 47 -29 53 -29
5 0 9 -4 9 -10 0 -5 5 -10 11 -10 14 0 109 -77 184 -150 180 -173 304 -336
380 -496 44 -93 108 -281 130 -384 8 -41 17 -82 19 -90 16 -65 27 -218 22
-285 -9 -102 -48 -299 -82 -407 -15 -45 -27 -89 -28 -96 -1 -7 -8 -18 -14 -24
-7 -7 -12 -18 -12 -25 0 -7 -11 -37 -25 -67 -14 -30 -25 -57 -25 -61 0 -3 -5
-11 -10 -18 -21 -25 -90 -138 -90 -148 0 -6 -4 -7 -10 -4 -5 3 -10 0 -10 -7 0
-7 -18 -33 -40 -57 -22 -24 -40 -47 -40 -51 0 -13 -222 -228 -280 -271 -30
-23 -57 -44 -60 -48 -3 -3 -16 -13 -30 -21 -131 -76 -182 -103 -239 -127 -36
-15 -68 -31 -69 -35 -2 -5 -8 -6 -12 -3 -5 3 -43 -6 -85 -20 -174 -59 -279
-77 -460 -81 -150 -2 -183 0 -280 21 -325 72 -588 195 -780 366 -33 30 -72 63
-86 74 -14 11 -29 27 -35 36 -5 9 -42 52 -82 95 -70 76 -178 214 -168 214 3 0
-6 16 -19 36 -14 20 -25 43 -25 50 0 7 -4 14 -8 16 -12 5 -103 248 -116 311
-2 6 -6 19 -9 27 -3 8 -15 71 -26 140 -20 120 -31 376 -17 398 3 6 8 36 11 67
5 60 41 223 58 265 5 14 12 33 13 42 7 36 95 222 133 284 23 36 41 67 41 70 0
2 8 13 18 24 9 11 46 58 82 104 36 47 71 86 78 86 6 0 12 6 12 14 0 11 93 106
104 106 2 0 18 13 36 30 17 16 59 50 93 75 34 25 67 49 72 53 52 41 263 145
280 138 7 -2 21 4 31 15 9 10 19 17 22 15 2 -3 25 2 50 10 64 20 199 53 242
60 19 3 62 11 95 17 33 7 61 9 63 5 2 -3 17 -2 35 3z"/>
<path d="M2745 4351 c-82 -31 -142 -60 -155 -76 -7 -8 -19 -15 -27 -15 -7 0
-16 -7 -19 -15 -4 -8 -12 -15 -19 -15 -15 0 -195 -176 -195 -191 0 -4 -9 -16
-19 -26 -28 -26 -96 -167 -116 -238 -23 -85 -31 -336 -14 -451 14 -96 13 -92
21 -114 3 -8 14 -37 23 -65 50 -142 271 -407 382 -458 20 -9 23 -18 24 -66 1
-31 3 -67 5 -81 4 -30 5 -74 3 -152 0 -31 2 -61 6 -67 3 -6 2 -11 -4 -11 -6 0
-7 -11 -3 -27 4 -16 6 -41 5 -58 -7 -77 9 -357 21 -386 14 -32 108 -60 151
-45 98 34 111 57 121 220 6 102 7 108 19 79 7 -17 30 -43 51 -57 71 -48 136
-28 178 56 l26 52 0 -60 c1 -88 17 -200 35 -234 19 -37 62 -60 114 -60 73 0
112 35 133 119 5 20 12 196 17 391 5 195 12 362 15 370 4 8 32 33 63 55 31 22
67 50 79 63 13 12 25 22 28 22 9 0 99 100 135 149 48 66 97 174 122 266 30
113 31 349 2 485 -48 225 -162 407 -330 526 -129 93 -309 157 -348 124 -8 -7
-15 -9 -15 -5 0 19 -35 -24 -53 -65 -19 -41 -21 -76 -28 -380 -5 -184 -11
-352 -14 -372 -5 -28 -18 -48 -48 -73 -23 -20 -43 -31 -45 -25 -2 5 -9 10 -16
10 -7 0 -25 13 -41 30 -25 26 -29 40 -36 117 -4 48 -8 194 -8 323 -1 321 -16
402 -81 435 -38 20 -84 18 -145 -4z m-46 -667 c5 -165 12 -306 15 -315 9 -21
175 -154 245 -196 78 -47 145 -46 225 2 32 19 61 35 64 35 2 0 15 11 28 25 13
14 26 25 30 25 10 0 116 81 130 99 7 9 9 26 4 40 -3 14 -3 37 1 51 4 14 8 113
9 220 1 107 5 224 9 259 l6 64 58 -59 c262 -264 243 -701 -41 -937 -48 -40
-164 -107 -197 -113 -5 -1 -43 -9 -83 -18 -91 -20 -176 -20 -266 -1 -71 15
-187 64 -218 92 -10 9 -18 13 -18 9 0 -5 -33 26 -73 67 -196 200 -244 496
-120 742 42 82 165 226 181 210 2 -1 7 -137 11 -301z m511 -1156 c-1 -53 -1
-53 -16 -26 -20 37 -63 58 -119 58 -56 0 -99 -21 -119 -58 -15 -27 -15 -27
-16 26 l0 52 135 0 135 0 0 -52z"/>
</g>
</svg>
